# xmcd CD database file
#
# Track frame offsets:
#	150
#	13390
#	37757
#	71025
#
# Disc length: 1205 seconds
#
# Revision: 0
# Processed by: cddbd v1.5.1PL0 Copyright (c) Steve Scherf et al.
# Submitted via: CDex 1.51
#
DISCID=2e04b304
DTITLE=amin - RYDEEN 雷電
DYEAR=2005
DGENRE=JPop
TTITLE0=RYDEEN 雷電
TTITLE1=Across -楼蘭の少女-
TTITLE2=上海Boogie Woogie 超速進化的台北remix
TTITLE3=CD-EXTRA [(PV) RYDEEN 雷電]
EXTD=YEAR: 2005
EXTT0=
EXTT1=
EXTT2=
EXTT3=
PLAYORDER=
